<svg width="800" height="600" xmlns="http://www.w3.org/2000/svg">

 <g>
  <title>Layer 1</title>
  <g stroke="null" xmlns="http://www.w3.org/2000/svg"/>
  <g stroke="null" xmlns="http://www.w3.org/2000/svg"/>
  <g stroke="null" xmlns="http://www.w3.org/2000/svg"/>
  <g stroke="null" xmlns="http://www.w3.org/2000/svg"/>
  <g stroke="null" xmlns="http://www.w3.org/2000/svg"/>
  <g stroke="null" xmlns="http://www.w3.org/2000/svg"/>
  <g stroke="null" xmlns="http://www.w3.org/2000/svg"/>
  <g stroke="null" xmlns="http://www.w3.org/2000/svg"/>
  <g stroke="null" xmlns="http://www.w3.org/2000/svg"/>
  <g stroke="null" xmlns="http://www.w3.org/2000/svg"/>
  <g stroke="null" xmlns="http://www.w3.org/2000/svg"/>
  <g stroke="null" xmlns="http://www.w3.org/2000/svg"/>
  <g stroke="null" xmlns="http://www.w3.org/2000/svg"/>
  <g stroke="null" xmlns="http://www.w3.org/2000/svg"/>
  <g stroke="null" xmlns="http://www.w3.org/2000/svg"/>
  <g stroke="null"/>
  <g stroke="null" id="svg_2">
   <path stroke="null" fill="#4CAF50" d="m352.28335,64.47917l-0.10537,0l0,0c-116.19791,0 -210.68938,94.51782 -210.68938,210.74206c0,46.09983 14.85732,88.82778 40.12002,123.52119l-26.26373,78.29068l81.00398,-25.89493c33.32359,22.07523 73.07481,34.82513 115.93448,34.82513c116.19791,0 210.68938,-94.54416 210.68938,-210.74206s-94.49147,-210.74206 -210.68938,-210.74206z"/>
   <g stroke="null"/>
   <g stroke="null"/>
   <g stroke="null"/>
   <g stroke="null"/>
   <g stroke="null"/>
   <g stroke="null"/>
   <g stroke="null"/>
   <g stroke="null"/>
   <g stroke="null"/>
   <g stroke="null"/>
   <g stroke="null"/>
   <g stroke="null"/>
   <g stroke="null"/>
   <g stroke="null"/>
   <g stroke="null"/>
   <path stroke="null" data-original="#ffffff" fill="#ffffff" d="m226.73595,358.15866c-0.0514,0 -0.10041,0 -0.15062,-0.00114c-4.09781,-0.04667 -7.91232,-1.99676 -10.21704,-5.22414c-3.63998,-5.09778 -8.97622,-16.85068 -18.00145,-62.86843c-4.83776,-24.66469 -8.47415,-47.89271 -8.51001,-48.12381c-1.01848,-6.52306 3.70931,-12.59532 10.55892,-13.56524c6.84483,-0.97106 13.22584,3.53133 14.24432,10.05553c0.03467,0.22654 3.58977,22.92293 8.31995,47.06737c2.73267,13.9466 5.06967,24.35049 7.01099,32.09165c11.82245,-20.74858 26.25325,-48.65089 32.60558,-61.2519c2.32624,-4.61282 7.47839,-7.30173 12.81702,-6.68358c5.33624,0.61815 9.66237,4.40563 10.75975,9.41575c2.0764,9.45787 7.45568,29.15228 15.09783,47.02752c2.81874,-25.4149 8.27333,-57.6682 18.67206,-77.96938c3.03511,-5.92654 10.54218,-8.38777 16.76541,-5.49622s8.80767,10.0396 5.77136,15.96613c-16.5347,32.28062 -19.01036,105.81478 -19.03427,106.55474c-0.14823,4.76309 -3.25625,8.98543 -7.90634,10.74199c-4.65128,1.7577 -9.95285,0.71492 -13.49122,-2.65476c-11.23312,-10.69759 -21.47287,-29.13293 -30.43713,-54.79373c-0.38731,-1.10995 -0.76386,-2.20851 -1.13084,-3.29341c-10.99046,20.83054 -25.43799,47.22333 -33.54875,58.01769c-2.35732,3.13061 -6.15509,4.98735 -10.19552,4.98735z"/>
   <path stroke="null" data-original="#ffffff" fill="#ffffff" d="m421.37127,257.39726c-5.22148,-10.09879 -14.18933,-17.08177 -25.90539,-20.1862c-13.36451,-3.53247 -27.84193,1.16573 -38.73317,12.58507c-12.92819,13.52426 -22.35866,38.87313 -10.06761,69.41996c8.41916,20.93527 21.65935,24.77739 30.21479,24.77739c0.92404,0 1.78592,-0.04781 2.58564,-0.11839c22.76987,-2.05824 41.89379,-30.74947 45.578,-50.42339c2.6478,-14.09573 1.41176,-26.22886 -3.67225,-36.05444zm-21.00906,31.85486c-1.16192,6.14967 -5.19638,14.28585 -10.3043,20.72125c-5.24659,6.62552 -10.39276,9.8973 -12.95329,10.1227c-1.56119,0.1423 -4.45882,-3.04523 -7.01936,-9.42144c-5.14617,-12.77518 -6.86993,-32.18841 5.19638,-44.82129c3.59694,-3.7704 7.78202,-5.90035 11.37896,-5.90035c0.72441,0 1.42371,0.0831 2.08596,0.26183c13.42667,3.55752 13.72552,17.74888 11.61565,29.0373z"/>
   <path stroke="null" data-original="#ffffff" fill="#ffffff" d="m514.51402,257.39726c-2.6227,-5.04314 -6.17063,-9.32582 -10.51708,-12.71599c-4.37156,-3.39017 -9.54283,-5.91174 -15.40146,-7.47022c-13.35256,-3.53247 -27.82878,1.16573 -38.73317,12.58507c-12.91504,13.52426 -22.34551,38.87313 -10.06761,69.41996c8.41916,20.93527 21.65935,24.77739 30.21479,24.77739c0.92404,0 1.79907,-0.04781 2.59759,-0.11839c22.75792,-2.05824 41.88065,-30.74947 45.56605,-50.42339c2.64899,-14.09573 1.41176,-26.22886 -3.6591,-36.05444zm-21.02221,31.85486c-1.14877,6.14967 -5.19638,14.28585 -10.29235,20.72125c-5.25854,6.62552 -10.40471,9.8973 -12.96525,10.1227c-1.54923,0.1423 -4.45882,-3.04523 -7.01936,-9.42144c-5.13422,-12.77518 -6.85678,-32.18841 5.19638,-44.82129c3.61009,-3.7704 7.79397,-5.90035 11.37896,-5.90035c0.72441,0 1.42371,0.0831 2.09792,0.26183c13.42787,3.55752 13.71476,17.74888 11.60369,29.0373z"/>
  </g>
  <g stroke="null">
   <g stroke="null" id="svg_18">
    <path stroke="null" fill="#e5e5e5" d="m340.20312,187.05361c6.55858,3.27764 12.46164,7.51854 17.54627,12.59985c5.08131,5.08433 9.32192,10.98768 12.59985,17.54627c0.56459,1.12617 1.69678,1.77537 2.87625,1.77537c0.48299,0 0.9723,-0.10991 1.43331,-0.33875c1.58718,-0.79344 2.23006,-2.72268 1.43662,-4.30986c-3.58839,-7.17647 -8.23369,-13.64111 -13.80431,-19.21505c-5.57364,-5.57063 -12.03828,-10.21593 -19.21505,-13.80431c-1.58718,-0.78742 -3.51612,-0.15056 -4.30986,1.43662c-0.79314,1.58748 -0.14996,3.51642 1.43692,4.30986z"/>
    <path stroke="null" fill="#e5e5e5" d="m335.30781,197.64302c5.04571,2.52286 9.58188,5.78144 13.48697,9.6891c3.90795,3.90481 7.16653,8.44126 9.6891,13.48697c0.53614,1.06942 1.61128,1.68591 2.73131,1.68591c0.45865,0 0.9233,-0.10437 1.36108,-0.32168c1.50719,-0.75345 2.11768,-2.58548 1.36422,-4.09267c-2.81766,-5.63246 -6.46055,-10.70191 -10.83287,-15.07137c-4.36946,-4.37261 -9.43891,-8.01521 -15.07137,-10.83287c-1.50719,-0.74459 -3.33893,-0.14297 -4.09267,1.36422c-0.75345,1.50691 -0.14268,3.33864 1.36422,4.09238z"/>
    <path stroke="null" fill="#e5e5e5" id="svg_17" d="m345.23494,175.73052c8.21664,4.10624 15.61203,9.41928 21.98208,15.78518c6.3659,6.36968 11.67856,13.76544 15.78518,21.98208c0.70732,1.41087 2.12574,2.2242 3.60338,2.2242c0.60509,0 1.2181,-0.13769 1.79566,-0.42439c1.98843,-0.99402 2.79383,-3.41099 1.79981,-5.39942c-4.49555,-8.99073 -10.31522,-17.08967 -17.29413,-24.07274c-6.98269,-6.97892 -15.08163,-12.79858 -24.07274,-17.29414c-1.98842,-0.98648 -4.40502,-0.18862 -5.39942,1.79981c-0.99365,1.9888 -0.18787,4.40539 1.80018,5.39942z"/>
   </g>
  </g>
  <g stroke="null"/>
  <g stroke="null"/>
  <g stroke="null"/>
  <g stroke="null"/>
  <g stroke="null"/>
  <g stroke="null"/>
  <g stroke="null"/>
  <g stroke="null"/>
  <g stroke="null"/>
  <g stroke="null"/>
  <g stroke="null"/>
  <g stroke="null"/>
  <g stroke="null"/>
  <g stroke="null"/>
  <g stroke="null"/>
 </g>
</svg>